<svg width="24" height="24" viewBox="0 0 24 24" fill="none" xmlns="http://www.w3.org/2000/svg">
  <path
    d="M13.1992 12L9.29922 8.09999C9.11589 7.91666 9.02422 7.68332 9.02422 7.39999C9.02422 7.11666 9.11589 6.88332 9.29922 6.69999C9.48256 6.51666 9.71589 6.42499 9.99922 6.42499C10.2826 6.42499 10.5159 6.51666 10.6992 6.69999L15.2992 11.3C15.3992 11.4 15.4701 11.5083 15.5117 11.625C15.5534 11.7417 15.5742 11.8667 15.5742 12C15.5742 12.1333 15.5534 12.2583 15.5117 12.375C15.4701 12.4917 15.3992 12.6 15.2992 12.7L10.6992 17.3C10.5159 17.4833 10.2826 17.575 9.99922 17.575C9.71589 17.575 9.48256 17.4833 9.29922 17.3C9.11589 17.1167 9.02422 16.8833 9.02422 16.6C9.02422 16.3167 9.11589 16.0833 9.29922 15.9L13.1992 12Z"
    fill="currentColor" />
</svg>