<svg width="24" height="25" viewBox="0 0 24 25" fill="none" xmlns="http://www.w3.org/2000/svg">
  <path
    d="M22 12.7573C22 18.2802 17.5228 22.7573 12 22.7573M22 12.7573C22 7.23448 17.5228 2.75732 12 2.75732M22 12.7573H2M12 22.7573C6.47715 22.7573 2 18.2802 2 12.7573M12 22.7573C9.43223 20.0612 8 16.4806 8 12.7573C8 9.03406 9.43223 5.45348 12 2.75732M12 22.7573C14.5678 20.0612 16 16.4806 16 12.7573C16 9.03406 14.5678 5.45348 12 2.75732M2 12.7573C2 7.23448 6.47715 2.75732 12 2.75732"
    stroke="currentColor" stroke-width="2" stroke-linecap="round" stroke-linejoin="round" />
</svg>