<?xml version="1.0" standalone="no"?>
<!DOCTYPE svg PUBLIC "-//W3C//DTD SVG 20010904//EN"
 "http://www.w3.org/TR/2001/REC-SVG-20010904/DTD/svg10.dtd">
<svg version="1.0" xmlns="http://www.w3.org/2000/svg"
 width="1024.000000pt" height="1024.000000pt" viewBox="0 0 1024.000000 1024.000000"
 preserveAspectRatio="xMidYMid meet">

<g transform="translate(0.000000,1024.000000) scale(0.100000,-0.100000)"
fill="#f34951" stroke="none">
<path d="M3345 8203 c-304 -24 -611 -137 -866 -319 -113 -80 -299 -268 -381
-384 -372 -527 -409 -1232 -98 -1857 96 -194 186 -331 344 -528 221 -274 467
-526 1136 -1164 124 -118 277 -264 340 -326 377 -365 1118 -1070 1193 -1135
l37 -32 -2 1115 c-3 1109 -3 1116 -24 1143 -46 62 -62 67 -227 76 -167 9 -241
24 -332 67 -131 61 -240 186 -292 331 -34 98 -43 253 -19 354 46 193 196 357
393 427 45 17 95 23 223 28 91 4 176 12 190 18 38 16 71 57 81 100 15 65 11
753 -6 875 -27 207 -110 400 -256 594 -307 410 -891 661 -1434 617z m-68 -29
c-3 -3 -12 -4 -19 -1 -8 3 -5 6 6 6 11 1 17 -2 13 -5z"/>
<path d="M6574 8200 c-265 -28 -560 -136 -787 -287 -116 -77 -298 -252 -382
-366 -108 -149 -176 -299 -218 -482 -18 -80 -21 -137 -26 -535 -6 -440 -6
-445 -29 -493 -28 -56 -79 -101 -141 -122 -28 -10 -108 -20 -201 -25 -219 -12
-316 -51 -414 -163 -81 -92 -126 -208 -126 -327 0 -236 164 -442 388 -489 29
-6 85 -11 125 -11 101 -1 211 -16 249 -36 46 -23 96 -72 121 -119 l22 -40 5
-1138 5 -1137 125 116 c69 65 208 196 310 294 102 97 338 322 525 500 187 178
399 380 470 450 72 69 218 211 325 314 314 303 727 722 836 846 378 433 573
786 661 1199 25 116 27 144 27 361 0 217 -2 244 -27 362 -91 428 -307 757
-662 1013 -108 78 -336 194 -460 234 -237 76 -493 105 -721 81z m269 -17 c-7
-2 -19 -2 -25 0 -7 3 -2 5 12 5 14 0 19 -2 13 -5z"/>
</g>
</svg>
