<svg width="24" height="25" viewBox="0 0 24 25" fill="none" xmlns="http://www.w3.org/2000/svg">
  <path
    d="M18 21.7573C18 19.6356 17.1571 17.6008 15.6569 16.1005C14.1566 14.6002 12.1217 13.7573 10 13.7573M10 13.7573C7.87827 13.7573 5.84344 14.6002 4.34315 16.1005C2.84285 17.6008 2 19.6356 2 21.7573M10 13.7573C12.7614 13.7573 15 11.5187 15 8.75732C15 5.9959 12.7614 3.75732 10 3.75732C7.23858 3.75732 5 5.9959 5 8.75732C5 11.5187 7.23858 13.7573 10 13.7573ZM22 20.7573C22 17.3873 20 14.2573 18 12.7573C18.6574 12.2641 19.1831 11.6164 19.5306 10.8716C19.878 10.1268 20.0365 9.30779 19.992 8.48712C19.9475 7.66646 19.7014 6.86941 19.2755 6.16652C18.8495 5.46364 18.2569 4.87659 17.55 4.45732"
    stroke="currentColor" stroke-width="2" stroke-linecap="round" stroke-linejoin="round" />
</svg>