<svg width="24" height="25" viewBox="0 0 24 25" fill="none" xmlns="http://www.w3.org/2000/svg">
  <path
    d="M20 10.7573C20 15.7503 14.461 20.9503 12.601 22.5563C12.4277 22.6866 12.2168 22.7571 12 22.7571C11.7832 22.7571 11.5723 22.6866 11.399 22.5563C9.539 20.9503 4 15.7503 4 10.7573C4 8.63559 4.84285 6.60076 6.34315 5.10047C7.84344 3.60018 9.87827 2.75732 12 2.75732C14.1217 2.75732 16.1566 3.60018 17.6569 5.10047C19.1571 6.60076 20 8.63559 20 10.7573Z"
    stroke="currentColor" stroke-width="2" stroke-linecap="round" stroke-linejoin="round" />
  <path
    d="M12 13.7573C13.6569 13.7573 15 12.4142 15 10.7573C15 9.10047 13.6569 7.75732 12 7.75732C10.3431 7.75732 9 9.10047 9 10.7573C9 12.4142 10.3431 13.7573 12 13.7573Z"
    stroke="currentColor" stroke-width="2" stroke-linecap="round" stroke-linejoin="round" />
</svg>