<svg width="24" height="25" viewBox="0 0 24 25" fill="none" xmlns="http://www.w3.org/2000/svg">
  <path
    d="M11 6.75732C12.1046 6.75732 13 5.86189 13 4.75732C13 3.65275 12.1046 2.75732 11 2.75732C9.89543 2.75732 9 3.65275 9 4.75732C9 5.86189 9.89543 6.75732 11 6.75732Z"
    stroke="currentColor" stroke-width="2" stroke-linecap="round" stroke-linejoin="round" />
  <path
    d="M18 10.7573C19.1046 10.7573 20 9.86189 20 8.75732C20 7.65275 19.1046 6.75732 18 6.75732C16.8954 6.75732 16 7.65275 16 8.75732C16 9.86189 16.8954 10.7573 18 10.7573Z"
    stroke="currentColor" stroke-width="2" stroke-linecap="round" stroke-linejoin="round" />
  <path
    d="M20 18.7573C21.1046 18.7573 22 17.8619 22 16.7573C22 15.6528 21.1046 14.7573 20 14.7573C18.8954 14.7573 18 15.6528 18 16.7573C18 17.8619 18.8954 18.7573 20 18.7573Z"
    stroke="currentColor" stroke-width="2" stroke-linecap="round" stroke-linejoin="round" />
  <path
    d="M8.99999 10.7573C9.6566 10.7573 10.3068 10.8867 10.9134 11.1379C11.52 11.3892 12.0712 11.7575 12.5355 12.2218C12.9998 12.6861 13.3681 13.2373 13.6194 13.8439C13.8707 14.4505 14 15.1007 14 15.7573V19.2573C13.9997 20.0938 13.6999 20.9025 13.1548 21.537C12.6097 22.1714 11.8554 22.5897 11.0286 22.716C10.2017 22.8424 9.35695 22.6684 8.64729 22.2256C7.93763 21.7828 7.41001 21.1005 7.15999 20.3023C6.73333 18.9257 5.83333 18.024 4.45999 17.5973C3.66218 17.3474 2.98016 16.8202 2.53735 16.1111C2.09455 15.402 1.92021 14.5577 2.04588 13.7312C2.17155 12.9047 2.58893 12.1504 3.2225 11.6049C3.85607 11.0595 4.66396 10.7588 5.49999 10.7573H8.99999Z"
    stroke="currentColor" stroke-width="2" stroke-linecap="round" stroke-linejoin="round" />
</svg>